<?xml version="1.0" encoding="utf-8"?>
<svg viewBox="0 0 680 500" xmlns="http://www.w3.org/2000/svg" xmlns:xlink="http://www.w3.org/1999/xlink" xmlns:bx="https://boxy-svg.com">
  <defs>
    <pattern id="pattern-1" viewBox="0 0 37.3027 50.231" patternUnits="userSpaceOnUse" preserveAspectRatio="none" width="100" height="100" bx:pinned="true">
      <path d="M 12.539 35.054 C 13.075 33.652 13.582 32.238 14.017 30.801 C 14.174 30.282 14.804 29.243 15.004 28.746 C 15.318 27.969 15.455 27.885 15.825 27.139 C 15.843 27.103 16.041 26.46 15.979 26.46 C 15.544 26.46 14.734 26.672 14.328 26.874 C 14.077 26.999 13.585 27.209 13.298 27.065 C 12.511 26.67 11.688 26.101 11.318 25.246 C 11.178 24.924 11.307 24.259 11.321 23.917 C 11.376 22.553 11.692 20.962 12.893 20.128 C 13.463 19.733 13.747 20.193 13.93 20.762 C 14.086 21.248 14.333 21.851 14.747 22.178 C 15.019 22.394 15.244 22.479 15.569 22.587 C 15.619 22.604 15.842 22.691 15.89 22.64 C 16.195 22.317 15.955 21.595 15.767 21.274 C 15.288 20.458 14.368 19.569 14.632 18.505 C 14.672 18.347 15.064 18.145 15.196 18.066 C 15.641 17.798 16.627 16.834 17.215 17.037 C 17.468 17.124 17.489 17.53 17.447 17.752 C 17.405 17.969 17.216 18.165 17.145 18.38 C 16.941 19.001 16.998 19.507 17.237 20.1 C 17.362 20.41 17.454 21.077 17.946 20.928 C 18.272 20.829 18.256 20.022 18.256 19.796 C 18.256 18.817 17.982 17.663 18.165 16.691 C 18.235 16.319 18.65 16.235 18.963 16.129 C 19.511 15.944 20.1 16.14 20.654 16.006 C 21.216 15.871 21.773 15.575 22.378 15.575 C 22.681 15.575 22.925 15.042 23.191 15.175 C 23.23 15.195 23.333 15.81 23.429 15.906 C 24.118 16.595 24.927 16.938 24.165 17.945 C 24.055 18.09 23.883 18.234 23.729 18.327 C 23.291 18.592 22.715 18.654 22.255 18.928 C 21.803 19.196 21.33 19.471 21.228 20.004 C 21.216 20.068 21.171 20.379 21.218 20.425 C 21.632 20.84 22.346 20.757 22.844 20.506 C 23.773 20.038 24.647 19.528 25.353 18.812 C 25.446 18.717 25.687 19.317 25.709 19.374 C 25.878 19.801 26.161 20.751 26.002 21.208 C 25.784 21.833 25.21 21.782 24.655 21.886 C 24.035 22.002 23.578 22.422 22.993 22.616 C 22.373 22.822 21.77 22.918 21.131 23.024 C 20.702 23.095 20.162 23.194 19.925 23.544 C 19.879 23.613 19.752 23.754 19.799 23.848 C 19.835 23.919 20.063 23.886 20.128 23.886 C 20.417 23.886 20.741 24.039 21.032 24.087 C 22.106 24.266 23.329 23.913 24.378 24.176 C 24.691 24.254 25.21 24.059 25.455 24.304 C 25.897 24.746 25.534 25.097 25.296 25.538 C 24.982 26.118 24.529 26.759 23.869 26.613 C 23.415 26.511 22.991 26.21 22.572 26.023 C 21.934 25.738 21.162 25.584 20.471 25.584 C 20.065 25.584 19.467 25.398 19.313 25.84 C 19.257 26 19.509 26.119 19.6 26.187 C 19.934 26.437 20.178 26.58 20.578 26.694 C 21.374 26.919 22.326 26.804 23.152 26.981 C 23.299 27.012 23.811 27.063 23.924 27.176 C 24.064 27.317 23.83 27.948 23.782 28.083 C 23.717 28.269 23.654 28.461 23.537 28.621 C 23.243 29.026 22.301 29.173 21.864 29.351 C 20.687 29.831 19.771 31.235 18.277 30.935 C 17.921 30.864 17.581 30.626 17.253 30.476 C 16.523 30.142 16.287 28.735 16.193 28.045 C 16.159 27.794 16.166 27.53 16.153 27.285 C 16.149 27.223 16.126 26.816 16.126 26.949 C 16.114 27.671 15.616 28.431 15.329 29.091 C 14.786 30.341 14.062 31.627 13.73 32.938 C 13.608 33.421 13.486 33.892 13.381 34.357 C 13.35 34.497 13.108 34.787 13 34.893 C 12.883 35.009 12.611 34.949 12.481 35.077 L 12.539 35.054 Z" style="stroke: rgb(223, 255, 196); stroke-width: 0px; fill: rgb(183, 241, 132);"/>
    </pattern>
    <pattern id="pattern-1-0" patternTransform="matrix(0.641672, 0.252301, -0.274366, 0.697791, 416.757935, 103.834671)" xlink:href="#pattern-1"/>
    <path id="path-0" style="fill: none;" d="M 277.417 230.492 C 284.282 218.435 285.149 216.281 286.503 214.332 C 288.91 211.89 290.075 208.446 292.569 206.259 C 295.013 204.17 297.466 201.968 299.603 200.885 C 302.004 199.108 303.478 197.721 305.028 196.418 C 308.736 194.467 311.459 191.969 314.019 189.612 C 315.37 187.67 320.382 187.692 321.802 187.248 C 325.722 186.173 328.798 184.892 331.996 184.316 C 336.857 183.046 341.672 182.686 346.284 181.863 C 350.729 181.381 353.768 181.618 357.008 182.263 C 360.711 182.699 363.877 183.047 367.144 183.047 C 372.364 183.14 376.35 184.535 379.88 185.238 C 383.979 186.237 387.088 187.486 390.528 188.89 C 394.149 191.668 397.248 193.706 400.582 195.373 C 404.093 197.575 406.253 200.347 409.047 202.726 C 412.31 205.694 413.704 208.958 415.745 211.722 C 417.658 214.252 419.476 215.792 420.647 218.133 C 421.597 219.813 422.236 221.396 422.856 222.959 C 423.709 224.6 424.19 225.765 424.818 226.845 C 425.65 227.807 425.976 229.371 426.462 230.343 L 426.527 230.732 C 426.873 232.19 426.808 234.079 426.808 232.179"/>
    <path id="path-1" style="fill: none;" d="M 296.92 206.452 C 302.07 200.395 304.171 199.458 306.399 197.871 C 307.527 197.391 308.609 196.811 309.352 196.057 C 310.575 195.436 311.822 194.664 312.684 194.018 C 314.359 193.392 315.312 192.718 316.423 192.718 C 318.957 192.156 321.089 191.043 322.759 189.361 C 324.137 188.41 325.355 188.51 326.434 187.963 C 328.364 187.463 330.02 187.117 331.676 186.698 C 333.482 186.384 335.031 185.921 336.425 185.565 C 339.174 184.753 341.384 184.617 343.386 184.197 C 345.926 183.904 347.88 183.972 349.822 183.972 C 352.135 183.972 354.155 184.05 356.177 184.05 C 359.281 184.215 361 184.218 362.641 184.765 C 364.505 185.231 366.198 185.696 367.787 185.914 C 370.438 187.05 372.612 186.93 374.678 187.699 C 376.652 188.482 378.523 188.87 380.054 189.635 C 381.724 190.431 382.781 190.828 383.848 191.238 C 385.231 191.534 386.556 192.379 387.643 192.995 C 389.17 193.87 390.483 194.617 391.802 195.276 C 394.357 196.714 395.869 197.405 396.963 198.499 C 398.47 199.934 399.356 201.096 400.375 201.911 C 401.001 202.609 401.397 203.264 401.94 203.807 C 402.77 204.573 403.44 204.983 404.017 205.56 L 404.226 205.697 C 404.58 205.906 404.918 206.109 405.241 206.366"/>
    <path id="path-2" style="fill: none;" d="M 58.153 202.782 C 100.848 109.018 153.849 89.836 206.118 66.45 C 273.107 44.162 323.058 44.23 372.689 40.402 C 405.766 39.377 425.41 37.408 444.593 39.779 C 483.819 44.627 518.56 69.617 549.601 92.195 C 589.564 129.987 581.663 142.248 581.663 186.632 C 581.441 219.364 579.363 245.952 576.239 274.277 L 575.995 277.043"/>
  </defs>
  <rect x="-14.014" y="-16.178" width="726.3" height="539.278" style="fill: rgb(213, 243, 191);"/>
  <rect y="-190.125" width="958.948" height="713.225" style="fill: url(#pattern-1-0); stroke: rgb(184, 196, 147);"/>
</svg>